<svg viewBox="0 0 24 24" xml:space="preserve" xmlns="http://www.w3.org/2000/svg"><path d="M5.8 7.9H1.5c-.3 0-.5.2-.5.5V22c0 .3.2.5.5.5h4.3c.3 0 .5-.2.5-.5V8.4c0-.3-.2-.5-.5-.5zM17.6 7.8c-1.7 0-3 .6-3.8 1.3v-.7c0-.3-.2-.5-.5-.5H8.5c-.2 0-.3.1-.4.2-.1.1-.1.2-.1.3V22c0 .1.1.3.1.3.1.1.2.1.3.1h4.8c.3 0 .5-.2.5-.5v-6.3c0-.3 0-.6.1-.8.3-.6.8-1.4 1.9-1.4 1.6 0 2 1.4 2 2.6v6c0 .3.2.5.5.5H23c.3 0 .5-.2.5-.5v-7.6c0-4.1-2.3-6.6-5.9-6.6zM3.6 1.5C1.8 1.5.5 2.7.5 4.3c0 1.6 1.3 2.8 3 2.8 1.8 0 3.1-1.2 3.1-2.9 0-1.5-1.2-2.7-3-2.7z" fill="#ffffff" class="fill-000000"></path></svg>