<?xml version="1.0" encoding="UTF-8" standalone="no"?>
<!-- Created with Inkscape (http://www.inkscape.org/) -->

<svg
   width="53.02253mm"
   height="6.3817501mm"
   viewBox="0 0 53.022529 6.3817501"
   version="1.1"
   id="svg1"
   inkscape:version="1.3.2 (091e20ef0f, 2023-11-25)"
   sodipodi:docname="logo.svg"
   xmlns:inkscape="http://www.inkscape.org/namespaces/inkscape"
   xmlns:sodipodi="http://sodipodi.sourceforge.net/DTD/sodipodi-0.dtd"
   xmlns="http://www.w3.org/2000/svg"
   xmlns:svg="http://www.w3.org/2000/svg">
  <sodipodi:namedview
     id="namedview1"
     pagecolor="#ffffff"
     bordercolor="#000000"
     borderopacity="0.25"
     inkscape:showpageshadow="2"
     inkscape:pageopacity="0.0"
     inkscape:pagecheckerboard="true"
     inkscape:deskcolor="#d1d1d1"
     inkscape:document-units="mm"
     showguides="false"
     inkscape:zoom="3.5572653"
     inkscape:cx="98.530745"
     inkscape:cy="29.095384"
     inkscape:window-width="1914"
     inkscape:window-height="1058"
     inkscape:window-x="0"
     inkscape:window-y="16"
     inkscape:window-maximized="1"
     inkscape:current-layer="layer1" />
  <defs
     id="defs1">
    <rect
       x="36.831081"
       y="41.328766"
       width="149.61618"
       height="42.979313"
       id="rect1" />
  </defs>
  <g
     inkscape:label="Layer 1"
     inkscape:groupmode="layer"
     id="layer1"
     transform="translate(0.40180554,2.0710451)">
    <text
       xml:space="preserve"
       transform="scale(0.26458333)"
       id="text1"
       style="white-space:pre;shape-inside:url(#rect1);display:inline;fill:#f07010;fill-opacity:1" />
    <text
       xml:space="preserve"
       style="font-style:normal;font-variant:normal;font-weight:normal;font-stretch:normal;font-size:5.64444px;font-family:Arial;-inkscape-font-specification:Arial;fill:#f08129;fill-opacity:1;stroke-width:0.264583"
       x="68.905556"
       y="17.621923"
       id="text3"><tspan
         sodipodi:role="line"
         style="stroke-width:0.264583"
         x="68.905556"
         y="17.621923"
         id="tspan3" /></text>
    <path
       style="font-weight:bold;font-size:6.35px;font-family:'Noto Sans Mono';-inkscape-font-specification:'Noto Sans Mono';fill:#ef812a;stroke-width:0.264583"
       d="M 0.84914444,2.7549548 V -0.98519513 H -0.40180554 V -1.7789451 H 3.0271944 v 0.79374997 h -1.2573 V 2.7549548 Z m 4.59740236,0.0635 q -0.9144,0 -1.41605,-0.4699 -0.4953,-0.4699 -0.4953,-1.3462 0,-0.53974995 0.1905,-0.93979994 0.1905,-0.40005 0.5588,-0.61595 0.3683,-0.22224999 0.889,-0.22224999 0.7365999,0 1.1366499,0.42544999 0.40005,0.42545 0.40005,1.18109998 V 1.2881048 H 4.4305468 q 0.0127,0.254 0.1524,0.4318 0.14605,0.17145 0.38735,0.26035 0.2413,0.08255 0.52705,0.08255 0.2476499,0 0.5206999,-0.05715 0.2794,-0.0635 0.59055,-0.1778 v 0.74295 q -0.2794,0.1397 -0.57785,0.1905 -0.2921,0.05715 -0.5841999,0.05715 z M 5.8846967,0.65945485 q -0.00635,-0.33655 -0.2032,-0.5334 -0.1904999,-0.19684999 -0.4889499,-0.19684999 -0.2921,0 -0.50165,0.19049999 -0.20955,0.18415 -0.2413,0.53975 z M 9.1803491,2.8184548 q -0.8763,0 -1.2954,-0.43815 -0.41275,-0.4445 -0.41275,-1.31445 0,-0.90169995 0.4318,-1.37159994 0.43815,-0.46989999 1.3081,-0.46989999 0.26035,0 0.55245,0.0508 0.2920999,0.04445 0.5651499,0.16509999 l -0.2667,0.73024999 Q 9.8089991,0.06890486 9.5994491,0.03715486 q -0.20955,-0.03175 -0.33655,-0.03175 -0.85725,0 -0.85725,1.02869994 0,0.52705 0.22225,0.76835 0.2286,0.23495 0.6477,0.23495 0.19685,0 0.4318,-0.05715 0.2413,-0.0635 0.5143499,-0.2286 v 0.8255 q -0.2730499,0.1397 -0.5206999,0.1905 -0.24765,0.0508 -0.5207,0.0508 z m 2.0066019,-0.0635 v -4.8259999 h 0.92075 v 0.98425 q 0,0.40639997 -0.01905,0.81914996 h 0.0508 q 0.15875,-0.24765 0.38735,-0.37464999 0.2286,-0.13335 0.5969,-0.13335 0.5842,0 0.89535,0.33019999 0.31115,0.32385 0.31115,0.93979999 V 2.7549548 h -0.92075 V 0.72930485 q 0,-0.42545 -0.15875,-0.5842 -0.15875,-0.15874999 -0.4318,-0.15874999 -0.3683,0 -0.53975,0.26669999 -0.17145,0.2667 -0.17145,0.86994995 v 1.63195 z m 3.810003,0 v -3.46709993 h 0.6985 l 0.1524,0.44449999 h 0.0508 q 0.3175,-0.50799999 1.04775,-0.50799999 0.5842,0 0.889,0.33019999 0.3048,0.32385 0.3048,0.93979999 V 2.7549548 h -0.92075 V 0.72930485 q 0,-0.381 -0.1524,-0.5588 -0.1524,-0.18414999 -0.43815,-0.18414999 -0.37465,0 -0.5461,0.30479999 -0.1651,0.3048 -0.1651,0.83184995 v 1.63195 z m 5.365751,0.0635 q -0.5207,0 -0.889,-0.22225 -0.3683,-0.22225 -0.56515,-0.6223 -0.19685,-0.40005 -0.19685,-0.9398 0,-0.55244995 0.19685,-0.95884994 0.2032,-0.4064 0.57785,-0.62865 0.37465,-0.22224999 0.889,-0.22224999 0.75565,0 1.1938,0.47624999 0.4445,0.46989999 0.4445,1.32079994 0,0.5334 -0.1905,0.9398 -0.1905,0.4064 -0.5588,0.635 -0.36195,0.22225 -0.9017,0.22225 z m 0.0127,-0.74295 q 0.36195,0 0.5334,-0.2794 0.17145,-0.28575 0.17145,-0.7747 0,-0.47624995 -0.1651,-0.76199995 -0.1651,-0.29209999 -0.53975,-0.29209999 -0.3683,0 -0.55245,0.28574999 -0.1778,0.2794 -0.1778,0.76834995 0,0.4826 0.1778,0.76835 0.18415,0.28575 0.55245,0.28575 z m 2.844803,-0.6223 V 0.65945485 h 1.905 V 1.4532048 Z m 4.603754,1.36525 q -0.3429,0 -0.67945,-0.0635 -0.3302,-0.06985 -0.6223,-0.20955 v -0.8382 q 0.3556,0.1778 0.6858,0.2667 0.3302,0.08255 0.64135,0.08255 0.3302,0 0.53975,-0.10795 0.20955,-0.1143 0.20955,-0.4064 0,-0.2032 -0.1143,-0.3175 -0.10795,-0.1143 -0.3175,-0.2159 -0.20955,-0.10794996 -0.50165,-0.26034995 -0.2921,-0.15875 -0.5334,-0.3429 -0.2413,-0.18415 -0.381,-0.43179999 -0.1397,-0.254 -0.1397,-0.60959999 0,-0.60959997 0.4064,-0.90804997 0.41275,-0.29845 1.0795,-0.29845 0.2667,0 0.635,0.0635 0.3683,0.05715 0.7239,0.2286 l -0.2921,0.71754997 q -0.31115,-0.13335 -0.56515,-0.19049997 -0.254,-0.05715 -0.45085,-0.05715 -0.31115,0 -0.4572,0.12699997 -0.1397,0.127 -0.1397,0.36195 0,0.18414999 0.0889,0.29844999 0.0889,0.1143 0.2667,0.20955 0.1778,0.0889 0.45085,0.22859999 0.37465,0.18415 0.635,0.36195 0.2667,0.17145 0.4064,0.40004999 0.1397,0.22859996 0.1397,0.58419996 0,0.43815 -0.2159,0.7366 -0.20955,0.2921 -0.5969,0.4445 -0.38735,0.14605 -0.9017,0.14605 z m 3.968751,0 q -0.5207,0 -0.889,-0.22225 -0.3683,-0.22225 -0.56515,-0.6223 -0.19685,-0.40005 -0.19685,-0.9398 0,-0.55244995 0.19685,-0.95884994 0.2032,-0.4064 0.57785,-0.62865 0.37465,-0.22224999 0.889,-0.22224999 0.75565,0 1.1938,0.47624999 0.4445,0.46989999 0.4445,1.32079994 0,0.5334 -0.1905,0.9398 -0.1905,0.4064 -0.5588,0.635 -0.36195,0.22225 -0.9017,0.22225 z m 0.0127,-0.74295 q 0.36195,0 0.5334,-0.2794 0.17145,-0.28575 0.17145,-0.7747 0,-0.47624995 -0.1651,-0.76199995 -0.1651,-0.29209999 -0.53975,-0.29209999 -0.3683,0 -0.55245,0.28574999 -0.1778,0.2794 -0.1778,0.76834995 0,0.4826 0.1778,0.76835 0.18415,0.28575 0.55245,0.28575 z m 2.152651,0.67945 v -0.5715 l 0.9017,-0.1905 V 0.04985486 l -0.73025,-0.10795 v -0.65404999 h 1.42875 l 0.13335,0.58419999 h 0.04445 q 0.1651,-0.2921 0.4191,-0.46989999 0.254,-0.1778 0.64135,-0.1778 0.10795,0 0.27305,0.01905 0.1651,0.01905 0.3302,0.0889 l -0.24765,0.85724998 q -0.0889,-0.03175 -0.22225,-0.05715 -0.13335,-0.0254 -0.2794,-0.0254 -0.43815,0 -0.65405,0.28575 -0.2159,0.2794 -0.2159,0.69849995 v 0.9017 l 0.90805,0.1905 v 0.5715 z m 5.702302,0.0635 q -0.8763,0 -1.2954,-0.43815 -0.41275,-0.4445 -0.41275,-1.31445 0,-0.90169995 0.4318,-1.37159994 0.43815,-0.46989999 1.3081,-0.46989999 0.26035,0 0.55245,0.0508 0.2921,0.04445 0.56515,0.16509999 l -0.2667,0.73024999 q -0.254,-0.10159999 -0.46355,-0.13334999 -0.20955,-0.03175 -0.33655,-0.03175 -0.85725,0 -0.85725,1.02869994 0,0.52705 0.22225,0.76835 0.2286,0.23495 0.6477,0.23495 0.19685,0 0.4318,-0.05715 0.2413,-0.0635 0.51435,-0.2286 v 0.8255 q -0.27305,0.1397 -0.5207,0.1905 -0.24765,0.0508 -0.5207,0.0508 z m 3.886205,0 q -0.9144,0 -1.41605,-0.4699 -0.4953,-0.4699 -0.4953,-1.3462 0,-0.53974995 0.1905,-0.93979994 0.1905,-0.40005 0.5588,-0.61595 0.3683,-0.22224999 0.889,-0.22224999 0.7366,0 1.13665,0.42544999 0.40005,0.42545 0.40005,1.18109998 V 1.2881048 h -2.27965 q 0.0127,0.254 0.1524,0.4318 0.14605,0.17145 0.38735,0.26035 0.2413,0.08255 0.52705,0.08255 0.24765,0 0.5207,-0.05715 0.2794,-0.0635 0.59055,-0.1778 v 0.74295 q -0.2794,0.1397 -0.57785,0.1905 -0.2921,0.05715 -0.5842,0.05715 z m 0.43815,-2.15899995 q -0.0063,-0.33655 -0.2032,-0.5334 -0.1905,-0.19684999 -0.48895,-0.19684999 -0.2921,0 -0.50165,0.19049999 -0.20955,0.18415 -0.2413,0.53975 z m 1.403351,2.09549995 v -0.5715 l 0.9017,-0.1905 V 0.04985486 l -0.73025,-0.10795 v -0.65404999 h 1.42875 l 0.13335,0.58419999 h 0.04445 q 0.1651,-0.2921 0.4191,-0.46989999 0.254,-0.1778 0.64135,-0.1778 0.10795,0 0.27305,0.01905 0.1651,0.01905 0.3302,0.0889 l -0.24765,0.85724998 q -0.0889,-0.03175 -0.22225,-0.05715 -0.13335,-0.0254 -0.2794,-0.0254 -0.43815,0 -0.65405,0.28575 -0.2159,0.2794 -0.2159,0.69849995 v 0.9017 l 0.90805,0.1905 v 0.5715 z m 4.394202,1.55575 q -0.1143,0 -0.23495,-0.0127 -0.1143,-0.0127 -0.23495,-0.0381 v -0.7874 q 0.0889,0.01905 0.1778,0.0254 0.0889,0.0127 0.1524,0.0127 0.2921,0 0.4572,-0.15875 0.17145,-0.15875 0.27305,-0.45085 l 0.05715,-0.17145 -1.36525,-3.44169993 h 1.0033 l 0.66675,1.99389993 q 0.04445,0.127 0.0762,0.2794 0.0381,0.14605 0.0635,0.32385 h 0.01905 q 0.03175,-0.1778 0.0635,-0.3175 0.0381,-0.1397 0.08255,-0.28575 l 0.59055,-1.99389993 h 0.9906 l -1.32715,3.65124993 q -0.254,0.70485 -0.61595,1.03505 -0.3556,0.33655 -0.89535,0.33655 z"
       id="text4"
       aria-label="Techno-Sorcery" />
  </g>
</svg>
